<svg version="1.2" xmlns="http://www.w3.org/2000/svg" viewBox="0 0 1517 1538" width="1517" height="1538">
	<title>NATL</title>
	<defs>
		<clipPath clipPathUnits="userSpaceOnUse" id="cp1">
			<path d="m-1.96-2.73h10616.23v1545.46h-10616.23z"/>
		</clipPath>
	</defs>
	<style>
		.s0 { fill: #004E42 } 
	</style>
	<g id="Clip-Path: Clip-Path: Clip-Path" clip-path="url(#cp1)">
		<g id="Clip-Path: Clip-Path">
			<g id="Clip-Path">
				<g id="g19">
					<path fill-rule="evenodd" class="s0" d="m1294.1 225.2c142.5 144.5 222.2 339.6 222.2 543.4 0 203.9-79.7 399.7-222.2 543.5-141.8 144.5-334.9 225.5-536.1 225.5-200.5 0-393.7-81-535.5-225.5-142.4-143.8-222.1-339.6-222.1-543.5 0-203.8 79.7-398.9 222.1-543.4 141.8-143.8 335-224.8 535.5-224.8 201.2 0 394.3 81 536.1 224.8zm-173.5 678.5q-66.2 70.9-140.5 133.6c-128.2 112.1-274.8 200.6-433.4 262l-25.7 9.4c64.1 103.3 147.2 165.4 237 165.4 180.3 0 330.2-245.7 362.6-570.4zm-893.3 320c29.7 31 103.3 20.9 179.6-3.4-38.5-98.6-62.8-201.2-72.9-306.5-62.2 92.5-152 248.4-109.4 306.5l2.7 2.7zm168.1-589.4q66.2-70.9 140.5-133.6c128.9-112.1 275.4-200.6 433.4-262.7q12.9-4.7 26.4-8.7c-64.2-103.3-147.2-165.4-237.7-165.4-179.6 0-329.5 245.7-362.6 570.4zm714.4-316.6c38.5 97.9 63.5 201.2 73.6 305.8 61.4-92.5 151.9-248.4 108.7-306.5l-2-2.7c-31.1-31.7-104.7-20.9-180.3 3.4zm-712.4 511.1c105.4 6 228.9 10.1 361.3 10.1 88.4 0 172.2-2 250.5-4.7 39.1-39.9 76.3-81.7 110.7-124.9-105.3-6.1-228.9-10.2-361.2-10.2-88.5 0-172.2 2.1-250.5 4.8-39.2 40.5-76.3 81.7-110.8 124.9zm653-490.8q-76.3 29-148.6 67.5c-100.6 55.3-195.1 120.8-282.9 195.1l-43.2 37.8c58.7-1.4 120.2-2 182.3-2 130.3 0 255.2 3.3 363.9 10.1-8.7-106-33-210-71.5-308.5zm-724.5 376.7c-160.1 12.8-262.7 32.4-262.7 54.6 0 18.3 70.9 35.2 187.7 47.3 23-35.1 48.6-68.9 75-101.9zm-259.3 133c8.8 79 31 155.9 65.5 227.5 10.1-66.2 41.8-131.7 74.2-187l6.8-12.2q-55.4-6.1-110.1-18.2-18.2-4.1-36.4-10.1zm399.7 352.4q76.3-29.1 148.6-67.5c99.9-55.4 195.1-120.9 282.9-194.5q21.6-18.9 42.5-38.5c-58.1 1.4-119.5 2.1-182.3 2.1-129.6 0-254.6-3.4-363.3-10.2 8.8 106 32.4 210 71.6 308.6zm723.8-376.7c160.7-12.9 263.4-32.4 263.4-54.1 0-18.9-71.6-35.1-187.7-47.9-23.7 35.1-48.6 68.9-75.7 102zm259.3-132.4c-8.8-79.6-31-156.6-65.5-228.1-10.1 66.8-41.8 132.3-73.6 187l-7.4 12.1q55.4 6.1 110.1 18.2 18.9 4.1 36.4 10.8zm-478-593.4c33.7 33.1 62.1 70.9 85.7 112.1 35.1-8.8 70.9-12.8 106.7-12.8-58.7-43.2-123.6-77-192.4-99.3zm-751.6 225.5c-84.4 105.3-137.7 232.9-152.6 367.9q17.6-6.7 35.8-10.8 78.4-16.2 157.4-23.6 33.4-3 70.9-6.1c19.5-240.3 100.6-440.1 213.3-552.9-126.9 41.9-239.7 120.2-324.8 225.5zm324.8 1118c-33.7-33.8-62.1-71.6-86.4-112.8-34.4 8.8-70.2 12.9-106 12.9 58.1 43.2 123.6 76.9 192.4 99.9zm752.2-226.2c84.4-105.3 137.8-232.9 152.6-367.9q-17.5 6.7-36.4 10.8-77.7 16.2-156.7 23.6-33.7 3.4-70.9 6.1c-20.2 239.7-100.6 440.2-214 552.9 127.6-41.8 240.3-120.2 325.4-225.5z"/>
				</g>
			</g>
		</g>
	</g>
</svg>